<?xml version="1.0"?>
<svg xmlns:svg="http://www.w3.org/2000/svg" xmlns="http://www.w3.org/2000/svg" xmlns:inkscape="http://www.inkscape.org/namespaces/inkscape" fill="#FFFFFF" version="1.1" x="0px" y="0px" viewBox="0 0 100 100">
  <g transform="translate(0,-952.36218)">
    <path d="m 34.341252,975.36968 a 2.000005,2.000005 0 0 0 -0.4375,0.094 c -4.45431,1.368 -7.60889,3.7873 -9.3125,6.9375 -1.70361,3.1502 -1.91887,6.8426 -1.1875,10.5937 1.46272,7.50222 6.65337,15.56572 13.21875,22.28122 6.56538,6.7156 14.48199,12.0908 22.03125,13.6563 3.77464,0.7827 7.53314,0.5757 10.781246,-1.125 3.24811,-1.7008 5.8323,-4.8724 7.4375,-9.4063 a 2.000005,2.000005 0 0 0 -0.8125,-2.3437 l -14.249996,-8.9375 -0.03125,-0.031 a 2.000005,2.000005 0 0 0 -0.21875,-0.125 2.000005,2.000005 0 0 0 -0.6875,-0.2812 2.000005,2.000005 0 0 0 -0.0625,0 2.000005,2.000005 0 0 0 -0.15625,-0.031 2.000005,2.000005 0 0 0 -0.03125,0 2.000005,2.000005 0 0 0 -0.96875,0.1875 2.000005,2.000005 0 0 0 -0.3125,0.1875 2.000005,2.000005 0 0 0 -0.1875,0.125 2.000005,2.000005 0 0 0 -0.0625,0.094 2.000005,2.000005 0 0 0 -0.21875,0.2187 l -3.125,3.1563 c -5.66589,-2.852 -10.02262,-7.6335 -13.9375,-14.09372 l 2.875,-2.8438 a 2.000005,2.000005 0 0 0 0.15625,-0.1562 2.000005,2.000005 0 0 0 0.125,-0.125 2.000005,2.000005 0 0 0 0,-0.031 2.000005,2.000005 0 0 0 0.125,-0.125 2.000005,2.000005 0 0 0 0,-0.031 2.000005,2.000005 0 0 0 0.0625,-0.094 2.000005,2.000005 0 0 0 0.0625,-0.062 2.000005,2.000005 0 0 0 0.0625,-0.1563 2.000005,2.000005 0 0 0 0,-0.031 2.000005,2.000005 0 0 0 0.03125,-0.062 2.000005,2.000005 0 0 0 0.0625,-0.125 2.000005,2.000005 0 0 0 0.03125,-0.1562 2.000005,2.000005 0 0 0 0,-0.031 2.000005,2.000005 0 0 0 0.03125,-0.1875 2.000005,2.000005 0 0 0 0,-0.031 2.000005,2.000005 0 0 0 0,-0.1563 2.000005,2.000005 0 0 0 0,-0.031 2.000005,2.000005 0 0 0 0,-0.1562 2.000005,2.000005 0 0 0 0,-0.062 2.000005,2.000005 0 0 0 -0.03125,-0.1563 2.000005,2.000005 0 0 0 0,-0.031 2.000005,2.000005 0 0 0 -0.125,-0.3437 2.000005,2.000005 0 0 0 0,-0.031 2.000005,2.000005 0 0 0 -0.125,-0.25 l -0.03125,-0.062 a 2.000005,2.000005 0 0 0 -0.03125,-0.031 l -8.90625,-14.625 a 2.000005,2.000005 0 0 0 -1.65625,-0.9688 2.000005,2.000005 0 0 0 -0.1875,0 z m -0.71875,4.4062 7.28125,12.0313 -3.03125,3 a 2.000005,2.000005 0 0 0 -0.3125,2.4062 c 4.62582,8.01062 10.10668,14.24262 17.78125,17.62502 a 2.000005,2.000005 0 0 0 2.21875,-0.4062 l 3.21875,-3.2188 11.749996,7.3438 c -1.30109,2.9281 -2.99725,4.6715 -4.9375,5.6875 -2.247426,1.1768 -4.992436,1.3996 -8.124996,0.75 -6.26511,-1.2992 -13.83288,-6.2231 -20,-12.5313 -6.16712,-6.3082 -10.9396,-13.97872 -12.15625,-20.21872 -0.60832,-3.12 -0.33958,-5.8072 0.8125,-7.9375 0.99198,-1.8343 2.67698,-3.4047 5.5,-4.5313 z" fill-opacity="1" fill-rule="evenodd" marker="none" visibility="visible" display="inline" overflow="visible"  stroke="2px" />
    <path d="m 50.000002,958.36248 c -24.27082,0 -43.99969,19.7187 -43.99969,43.99972 0,8.8234 2.61464,17.0704 7.22469,24.1453 l -4.92062,16.4206 a 2.000005,2.000005 0 0 0 2.56812,2.4644 l 16.0725,-5.5469 c 6.69247,4.1306 14.60653,6.5163 23.055,6.5163 24.280346,0 43.999686,-19.7194 43.999686,-43.9997 0,-24.28042 -19.71934,-43.99972 -43.999686,-43.99972 z m 0,3.9994 c 22.119646,0 40.000316,17.8806 40.000316,40.00032 0,22.1196 -17.88067,40.0003 -40.000316,40.0003 -8.01844,0 -15.47602,-2.3519 -21.71156,-6.3978 a 2.000005,2.000005 0 0 0 -1.74094,-0.2128 l -13.29188,4.5872 4.07,-13.5829 a 2.000005,2.000005 0 0 0 -0.26312,-1.7003 c -4.51864,-6.6299 -7.06281,-14.3521 -7.06281,-22.6937 0,-22.11912 17.89113,-40.00032 40.00031,-40.00032 z" fill-opacity="1" fill-rule="evenodd" marker="none" visibility="visible" display="inline" overflow="visible" stroke="2px" />
  </g>
</svg>
